<?xml version='1.0' encoding='utf-8'?>
<svg xmlns="http://www.w3.org/2000/svg" viewBox="145.00 90.00 200.00 135.00" width="512" height="512"><defs><style>.st0 { fill: #deba4e; } .st1 { fill: #024538; }</style></defs><path d="M325.61,108.63c-3.53-5.83-8.97-9.71-16.19-11.51l-1.21-.3-55.03-.1v1.91s30.71.1,30.71.1q26.27.08,29.95,2.01c.14.07.29.15.46.24,4.62,2.27,8.11,5.72,10.4,10.27,1.87,3.82,2.48,6.7,2.34,11.07-.09,2.74-.26,4.03-1.05,6.38l-.16.48q-1.53,4.57-26.79,29.83l-43.68,43.68-.06-45.06c0-15.62,0-31.77.04-36.13v-.78s-2.22,0-2.22,0l.11,87.03,32.6-32.6c23.05-23.05,36.32-36.41,37.73-37.92,6.55-7.95,7.39-19.68,2.04-28.57" class="st1" /><path d="M252.74,208.93l-.12-88.73h3.23v1.28c-.05,4.36-.05,20.51-.05,36.12l.06,43.85,42.83-42.83q25.18-25.17,26.67-29.63l.16-.48c.77-2.28.93-3.56,1.02-6.23.13-4.27-.47-7.11-2.29-10.83-2.24-4.44-5.66-7.82-10.17-10.04-.15-.07-.29-.14-.41-.21q-3.63-1.9-29.78-1.99l-31.19-.1-.02-2.91,55.65.12,1.21.3c7.35,1.84,12.9,5.79,16.5,11.74h0c5.46,9.06,4.6,21.05-2.08,29.15-1.38,1.47-13.77,13.96-37.76,37.96l-33.45,33.46ZM253.62,121.2l.11,85.32,31.75-31.75c22.92-22.92,36.33-36.42,37.72-37.91,6.39-7.76,7.21-19.27,1.97-27.97h0c-3.46-5.72-8.8-9.52-15.88-11.29l-1.15-.29-54.46-.1v.91s30.21.1,30.21.1q26.39.08,30.18,2.07c.18.09.3.16.45.23,4.71,2.31,8.29,5.84,10.63,10.49,1.91,3.89,2.53,6.85,2.4,11.31-.09,2.79-.26,4.12-1.07,6.52l-.16.48q-1.56,4.68-26.91,30.02l-44.53,44.53-.06-46.26c0-15.62,0-31.77.04-36.13v-.28s-1.22,0-1.22,0Z" class="st0" /><path d="M249.25,217.37l-.13-100.67h10.26l-.04,4.81c-.04,4.35-.04,20.49-.04,36.1l.05,35.41,36.87-36.87c24.6-24.59,24.62-24.66,25.82-28.26l.17-.5c.64-1.9.76-2.82.84-5.22.11-3.71-.36-5.95-1.94-9.17-1.87-3.71-4.76-6.56-8.57-8.43-.17-.09-.34-.17-.49-.25-2.83-1.48-2.88-1.51-28.17-1.59l-34.66-.11-.07-9.9,59.55.11,1.68.42c8.28,2.07,14.55,6.55,18.65,13.33h0c6.21,10.31,5.23,23.96-2.38,33.19l-.17.19c-1.38,1.47-13.8,13.99-37.82,38.01l-39.42,39.42Z" class="st0" /><path d="M323.53,137.24c-.05.06-.09.11-.12.14l.08-.09s.03-.03.04-.05" class="st1" /><path d="M323.8,137.71l-.78-.63.13-.16.76.65-.11.14ZM323.53,137.24l.38.33-.38-.33Z" class="st0" /><path d="M326.49,139.94l-6.21-5.04s.09-.11.15-.18c.02-.03.05-.06.08-.09l3.32,2.85,2.85,2.23-.19.23Z" class="st0" /><path d="M310.56,181.41l2.32,2.33c2.9,2.91,7.93,7.98,12.67,12.75l3.73,3.76v-2.98l-17.29-17.29-1.43,1.43Z" class="st1" /><path d="M329.78,201.47l-6.17-6.21c-4.25-4.28-8.51-8.57-11.09-11.16l-2.67-2.68,2.14-2.14,17.79,17.79v4.4ZM311.27,181.42l1.96,1.97c2.58,2.59,6.85,6.89,11.09,11.16l4.46,4.49v-1.56l-16.79-16.79-.72.72Z" class="st0" /><path d="M333.28,209.96l-12.15-12.23c-4.25-4.28-8.51-8.57-11.09-11.16l-5.13-5.16,7.08-7.08,21.29,21.29v14.34Z" class="st0" /><path d="M239.41,207.73l.11-87.03h-2.23v.79c.05,4.35.05,20.49.05,36.11l-.06,45.07-43.68-43.68q-25.26-25.26-26.79-29.82l-.14-.42c-.81-2.4-.98-3.7-1.07-6.41-.13-4.39.47-7.27,2.31-11.02,2.32-4.62,5.82-8.07,10.42-10.33.19-.09.34-.17.48-.24q3.68-1.93,29.95-2.01l30.7-.1v-1.91s-55.01.1-55.01.1l-1.23.3c-7.2,1.8-12.64,5.68-16.18,11.52-5.35,8.88-4.51,20.61,2.04,28.56,1.42,1.51,14.69,14.88,37.73,37.92l32.6,32.6Z" class="st1" /><path d="M239.91,208.93l-33.45-33.46c-22.9-22.9-36.32-36.41-37.74-37.93-6.7-8.13-7.56-20.11-2.11-29.16,3.6-5.96,9.15-9.91,16.48-11.75l1.35-.32,55.53-.1-.02,2.91-31.19.1q-26.15.08-29.72,1.95c-.19.1-.32.17-.49.25-4.5,2.21-7.93,5.61-10.19,10.1-1.79,3.67-2.38,6.49-2.25,10.78.09,2.7.25,3.91,1.04,6.27l.14.42q1.49,4.46,26.67,29.63l42.83,42.83.06-43.86c0-15.61,0-31.75-.04-36.1v-1.29s3.22,0,3.22,0l-.12,88.73ZM184.49,97.32l-1.17.29c-7.07,1.77-12.41,5.57-15.87,11.29-5.24,8.69-4.42,20.2,2,27.99,1.4,1.49,14.81,14.99,37.7,37.88l31.75,31.75.11-85.32h-1.22v.29c.04,4.35.04,20.5.04,36.11l-.06,46.27-44.53-44.53q-25.35-25.34-26.91-30.02l-.14-.42c-.83-2.45-1-3.79-1.09-6.55-.14-4.48.48-7.42,2.36-11.26,2.36-4.7,5.95-8.25,10.65-10.56.16-.08.29-.15.41-.21q3.85-2.01,30.24-2.1l30.2-.1v-.91s-54.46.1-54.46.1Z" class="st0" /><path d="M243.39,217.37l-39.42-39.42c-23.99-23.99-36.42-36.52-37.82-38.01l-.17-.19c-7.61-9.23-8.59-22.87-2.38-33.17,4.1-6.78,10.37-11.27,18.63-13.34l1.71-.42,59.54-.11-.07,9.9-34.66.11c-25.29.08-25.34.11-28.1,1.55-.22.11-.38.2-.59.3-3.84,1.89-6.66,4.68-8.6,8.53-1.53,3.14-2,5.36-1.88,9.1.08,2.37.2,3.29.86,5.25l.14.42c1.21,3.62,1.23,3.68,25.83,28.27l36.87,36.87.05-35.43c0-15.6,0-31.73-.04-36.07l-.04-4.83h10.26l-.13,100.67Z" class="st0" /><path d="M169.23,137.39s-.07-.08-.12-.14c.01.02.03.03.04.05l.08.09Z" class="st1" /><polygon points="168.84 137.71 168.77 137.61 168.77 137.61 168.73 137.57 169.49 136.92 169.61 137.07 168.84 137.71" class="st0" /><polygon points="166.15 139.94 165.96 139.71 172.16 134.65 172.3 134.82 172.3 134.82 172.3 134.83 166.15 139.94" class="st0" /><path d="M179.76,183.74l2.31-2.33-1.43-1.43-17.29,17.29v2.98l3.73-3.76c4.74-4.77,9.77-9.84,12.67-12.76" class="st1" /><path d="M162.86,201.47v-4.4l17.79-17.79,2.14,2.14-2.67,2.68c-2.9,2.91-7.93,7.98-12.67,12.75l-4.59,4.62ZM163.86,197.48v1.56l2.88-2.9c4.74-4.77,9.77-9.84,12.67-12.76l1.96-1.97-.72-.72-16.79,16.79Z" class="st0" /><path d="M159.36,209.96v-14.34l21.29-21.29,7.08,7.08-5.13,5.15c-2.9,2.91-7.93,7.98-12.67,12.75l-10.57,10.65Z" class="st0" /></svg>