<?xml version="1.0" encoding="UTF-8"?>
<svg id="_Слой_1" data-name="Слой_1" xmlns="http://www.w3.org/2000/svg" version="1.1" viewBox="0 0 500 500">
  <!-- Generator: Adobe Illustrator 29.6.1, SVG Export Plug-In . SVG Version: 2.1.1 Build 9)  -->
  <defs>
    <style>
      .st0 {
        fill: #deba4e;
      }

      .st1 {
        fill: #024538;
      }
    </style>
  </defs>
  <rect class="st1" x="148.2" y="251.82" width="196.25" height="2.05"/>
  <g>
    <g>
      <path class="st1" d="M325.61,108.63c-3.53-5.83-8.97-9.71-16.19-11.51l-1.21-.3-55.03-.1v1.91s30.71.1,30.71.1q26.27.08,29.95,2.01c.14.07.29.15.46.24,4.62,2.27,8.11,5.72,10.4,10.27,1.87,3.82,2.48,6.7,2.34,11.07-.09,2.74-.26,4.03-1.05,6.38l-.16.48q-1.53,4.57-26.79,29.83l-43.68,43.68-.06-45.06c0-15.62,0-31.77.04-36.13v-.78s-2.22,0-2.22,0l.11,87.03,32.6-32.6c23.05-23.05,36.32-36.41,37.73-37.92,6.55-7.95,7.39-19.68,2.04-28.57"/>
      <path class="st0" d="M252.74,208.93l-.12-88.73h3.23v1.28c-.05,4.36-.05,20.51-.05,36.12l.06,43.85,42.83-42.83q25.18-25.17,26.67-29.63l.16-.48c.77-2.28.93-3.56,1.02-6.23.13-4.27-.47-7.11-2.29-10.83-2.24-4.44-5.66-7.82-10.17-10.04-.15-.07-.29-.14-.41-.21q-3.63-1.9-29.78-1.99l-31.19-.1-.02-2.91,55.65.12,1.21.3c7.35,1.84,12.9,5.79,16.5,11.74h0c5.46,9.06,4.6,21.05-2.08,29.15-1.38,1.47-13.77,13.96-37.76,37.96l-33.45,33.46ZM253.62,121.2l.11,85.32,31.75-31.75c22.92-22.92,36.33-36.42,37.72-37.91,6.39-7.76,7.21-19.27,1.97-27.97h0c-3.46-5.72-8.8-9.52-15.88-11.29l-1.15-.29-54.46-.1v.91s30.21.1,30.21.1q26.39.08,30.18,2.07c.18.09.3.16.45.23,4.71,2.31,8.29,5.84,10.63,10.49,1.91,3.89,2.53,6.85,2.4,11.31-.09,2.79-.26,4.12-1.07,6.52l-.16.48q-1.56,4.68-26.91,30.02l-44.53,44.53-.06-46.26c0-15.62,0-31.77.04-36.13v-.28s-1.22,0-1.22,0Z"/>
    </g>
    <path class="st0" d="M249.25,217.37l-.13-100.67h10.26l-.04,4.81c-.04,4.35-.04,20.49-.04,36.1l.05,35.41,36.87-36.87c24.6-24.59,24.62-24.66,25.82-28.26l.17-.5c.64-1.9.76-2.82.84-5.22.11-3.71-.36-5.95-1.94-9.17-1.87-3.71-4.76-6.56-8.57-8.43-.17-.09-.34-.17-.49-.25-2.83-1.48-2.88-1.51-28.17-1.59l-34.66-.11-.07-9.9,59.55.11,1.68.42c8.28,2.07,14.55,6.55,18.65,13.33h0c6.21,10.31,5.23,23.96-2.38,33.19l-.17.19c-1.38,1.47-13.8,13.99-37.82,38.01l-39.42,39.42Z"/>
    <g>
      <path class="st1" d="M323.53,137.24c-.05.06-.09.11-.12.14l.08-.09s.03-.03.04-.05"/>
      <path class="st0" d="M323.8,137.71l-.78-.63.13-.16.76.65-.11.14ZM323.53,137.24l.38.33-.38-.33Z"/>
    </g>
    <path class="st0" d="M326.49,139.94l-6.21-5.04s.09-.11.15-.18c.02-.03.05-.06.08-.09l3.32,2.85,2.85,2.23-.19.23Z"/>
    <g>
      <path class="st1" d="M310.56,181.41l2.32,2.33c2.9,2.91,7.93,7.98,12.67,12.75l3.73,3.76v-2.98l-17.29-17.29-1.43,1.43Z"/>
      <path class="st0" d="M329.78,201.47l-6.17-6.21c-4.25-4.28-8.51-8.57-11.09-11.16l-2.67-2.68,2.14-2.14,17.79,17.79v4.4ZM311.27,181.42l1.96,1.97c2.58,2.59,6.85,6.89,11.09,11.16l4.46,4.49v-1.56l-16.79-16.79-.72.72Z"/>
    </g>
    <path class="st0" d="M333.28,209.96l-12.15-12.23c-4.25-4.28-8.51-8.57-11.09-11.16l-5.13-5.16,7.08-7.08,21.29,21.29v14.34Z"/>
    <g>
      <path class="st1" d="M239.41,207.73l.11-87.03h-2.23v.79c.05,4.35.05,20.49.05,36.11l-.06,45.07-43.68-43.68q-25.26-25.26-26.79-29.82l-.14-.42c-.81-2.4-.98-3.7-1.07-6.41-.13-4.39.47-7.27,2.31-11.02,2.32-4.62,5.82-8.07,10.42-10.33.19-.09.34-.17.48-.24q3.68-1.93,29.95-2.01l30.7-.1v-1.91s-55.01.1-55.01.1l-1.23.3c-7.2,1.8-12.64,5.68-16.18,11.52-5.35,8.88-4.51,20.61,2.04,28.56,1.42,1.51,14.69,14.88,37.73,37.92l32.6,32.6Z"/>
      <path class="st0" d="M239.91,208.93l-33.45-33.46c-22.9-22.9-36.32-36.41-37.74-37.93-6.7-8.13-7.56-20.11-2.11-29.16,3.6-5.96,9.15-9.91,16.48-11.75l1.35-.32,55.53-.1-.02,2.91-31.19.1q-26.15.08-29.72,1.95c-.19.1-.32.17-.49.25-4.5,2.21-7.93,5.61-10.19,10.1-1.79,3.67-2.38,6.49-2.25,10.78.09,2.7.25,3.91,1.04,6.27l.14.42q1.49,4.46,26.67,29.63l42.83,42.83.06-43.86c0-15.61,0-31.75-.04-36.1v-1.29s3.22,0,3.22,0l-.12,88.73ZM184.49,97.32l-1.17.29c-7.07,1.77-12.41,5.57-15.87,11.29-5.24,8.69-4.42,20.2,2,27.99,1.4,1.49,14.81,14.99,37.7,37.88l31.75,31.75.11-85.32h-1.22v.29c.04,4.35.04,20.5.04,36.11l-.06,46.27-44.53-44.53q-25.35-25.34-26.91-30.02l-.14-.42c-.83-2.45-1-3.79-1.09-6.55-.14-4.48.48-7.42,2.36-11.26,2.36-4.7,5.95-8.25,10.65-10.56.16-.08.29-.15.41-.21q3.85-2.01,30.24-2.1l30.2-.1v-.91s-54.46.1-54.46.1Z"/>
    </g>
    <path class="st0" d="M243.39,217.37l-39.42-39.42c-23.99-23.99-36.42-36.52-37.82-38.01l-.17-.19c-7.61-9.23-8.59-22.87-2.38-33.17,4.1-6.78,10.37-11.27,18.63-13.34l1.71-.42,59.54-.11-.07,9.9-34.66.11c-25.29.08-25.34.11-28.1,1.55-.22.11-.38.2-.59.3-3.84,1.89-6.66,4.68-8.6,8.53-1.53,3.14-2,5.36-1.88,9.1.08,2.37.2,3.29.86,5.25l.14.42c1.21,3.62,1.23,3.68,25.83,28.27l36.87,36.87.05-35.43c0-15.6,0-31.73-.04-36.07l-.04-4.83h10.26l-.13,100.67Z"/>
    <g>
      <path class="st1" d="M169.23,137.39s-.07-.08-.12-.14c.01.02.03.03.04.05l.08.09Z"/>
      <polygon class="st0" points="168.84 137.71 168.77 137.61 168.77 137.61 168.73 137.57 169.49 136.92 169.61 137.07 168.84 137.71"/>
    </g>
    <polygon class="st0" points="166.15 139.94 165.96 139.71 172.16 134.65 172.3 134.82 172.3 134.82 172.3 134.83 166.15 139.94"/>
    <g>
      <path class="st1" d="M179.76,183.74l2.31-2.33-1.43-1.43-17.29,17.29v2.98l3.73-3.76c4.74-4.77,9.77-9.84,12.67-12.76"/>
      <path class="st0" d="M162.86,201.47v-4.4l17.79-17.79,2.14,2.14-2.67,2.68c-2.9,2.91-7.93,7.98-12.67,12.75l-4.59,4.62ZM163.86,197.48v1.56l2.88-2.9c4.74-4.77,9.77-9.84,12.67-12.76l1.96-1.97-.72-.72-16.79,16.79Z"/>
    </g>
    <path class="st0" d="M159.36,209.96v-14.34l21.29-21.29,7.08,7.08-5.13,5.15c-2.9,2.91-7.93,7.98-12.67,12.75l-10.57,10.65Z"/>
  </g>
  <g>
    <path class="st1" d="M148.07,349.47c.47-.12.91-.07,1.3.14.39.21.66.56.8,1.03.14.55.06,1.03-.25,1.46-.31.43-.75.65-1.32.67-.97.05-1.93.09-2.88.14-1.59.05-3.16.1-4.73.14-4.32.17-8.81,0-13.49-.5-4.68-.5-9.17-1.57-13.46-3.22-4.29-1.65-7.99-4.1-11.1-7.34-1.4.69-2.81,1.36-4.23,2.03-.69,2.42-1.32,4.84-1.89,7.25-.45,1.82-.91,3.64-1.39,5.44-.38,1.37-.77,2.75-1.17,4.12-.05.62-.13,1.22-.25,1.81-.64,3.48-1.76,6.78-3.34,9.89-.14.28-.36.47-.64.57-.28.09-.57.08-.85-.04-.26-.14-.44-.34-.53-.59s-.11-.51-.04-.76c.07-.21.14-.44.21-.68,1.28-4.41,2.49-8.83,3.63-13.26-.12-2.16-.57-4.01-1.35-5.55-.78-1.54-1.75-2.76-2.92-3.66-2.51.99-5.07,1.81-7.68,2.45-1.28.33-2.61.5-3.98.5-.48-.07-.66-.32-.57-.75.09-.43.3-.88.62-1.37.32-.49.57-.85.76-1.08,0-.02.01-.04.04-.04,1.33-1.61,2.97-2.54,4.92-2.77,1.96-.24,3.83.11,5.64,1.03.88-.41,1.75-.81,2.63-1.21,1.8-.88,3.6-1.77,5.41-2.67,1.09-4.15,2.23-8.29,3.41-12.41.05-.21.11-.43.18-.64l.04.04s.01-.05.04-.07v-.14c.31-.61.75-.95,1.32-.99.57-.05,1.06.12,1.46.52.4.39.53.94.39,1.65-.5,1.52-.98,3.05-1.46,4.59.1.66.25,1.3.46,1.92.28.69.6,1.34.96,1.96,9.27-5.07,18.21-10.66,26.81-16.75,4.08-2.89,8.03-5.94,11.86-9.16,3.83-3.21,7.34-6.73,10.54-10.54,3.94-4.74,5.64-8.85,5.12-12.34-.52-3.48-3.89-6.23-10.1-8.25-7.42-2.28-15.19-2.86-23.31-1.74-8.12,1.11-16.06,3.5-23.82,7.16-7.77,3.66-14.84,8.2-21.23,13.6-6.39,5.41-11.59,11.27-15.59,17.6-1.42,2.35-2.61,4.8-3.56,7.38-.95,2.57-1.51,5.23-1.67,7.98-.07,1.78.08,3.52.46,5.23.09.73-.1,1.28-.57,1.64-.48.35-1,.47-1.58.34-.58-.13-.97-.56-1.16-1.3-.66-4.48-.3-8.79,1.08-12.94,1.39-4.15,3.39-8.05,6.01-11.7,2.62-3.65,5.46-6.98,8.52-9.99,6.61-6.38,14.16-11.93,22.63-16.66,8.48-4.73,17.38-8,26.72-9.82,9.34-1.81,18.61-1.56,27.81.77,2.32.62,4.55,1.54,6.68,2.76,2.13,1.22,3.79,2.93,4.98,5.14,1.07,2.58,1.22,5.22.45,7.91-.77,2.69-2.09,5.3-3.95,7.84-1.86,2.54-3.89,4.88-6.1,7.04-2.21,2.16-4.22,4.01-6.05,5.55-12.18,9.96-25.32,18.44-39.4,25.46,1.85,2.08,4.06,3.78,6.63,5.07,2.57,1.29,5.19,2.3,7.84,3.04,4.79,1.21,9.67,1.84,14.63,1.9,4.97.06,9.83-.55,14.6-1.83M83.63,348.33c.8-.31,1.6-.63,2.38-.96-1.54-.59-3.06-.66-4.57-.21-1.51.45-2.76,1.45-3.75,2.99,1.8-.36,3.57-.88,5.3-1.56.21-.1.43-.18.64-.25M94.05,350.79c.38-1.73.77-3.45,1.17-5.16-1.26.57-2.52,1.13-3.8,1.67-.5.21-1,.41-1.49.6,1.71,1.54,2.89,3.36,3.56,5.48.21-.85.4-1.72.57-2.6M100.42,338.2c-.26.85-.51,1.71-.75,2.56.55-.28,1.09-.58,1.64-.89-.36-.57-.65-1.13-.89-1.67"/>
    <path class="st1" d="M172.57,325.08c.59-.07.8.05.62.37-.18.32-.6.75-1.26,1.3-.66.55-1.39,1.11-2.19,1.69-.79.58-1.51,1.08-2.15,1.49-.64.42-1.03.66-1.17.73-1.78,1.11-3.6,2.15-5.48,3.11-1.87.96-3.84,1.71-5.9,2.26-1.68.5-2.85.21-3.49-.85-.64-1.07-.83-2.35-.57-3.84.26-2.35,1.08-4.48,2.45-6.4.4-.45.85-.61,1.33-.48.49.13.85.42,1.08.85.24.44.18.91-.18,1.41-.78,1.11-1.43,2.35-1.95,3.72-.52,1.36-.69,2.72-.5,4.07.5.47,1.18.63,2.06.46.88-.17,1.71-.42,2.49-.75.38-.14.71-.25,1-.32,2.54-1.04,4.98-2.29,7.34-3.73,2.36-1.45,4.51-3.14,6.45-5.08M155.68,321.56c-.88-.12-1.33-.51-1.37-1.17-.04-.66.2-1.24.71-1.74.51-.5,1.12-.53,1.83-.1.43.31.62.69.57,1.16-.05.46-.24.88-.57,1.26-.33.38-.72.58-1.17.6"/>
    <path class="st1" d="M202.58,325.11c.12-.14.25-.2.39-.16.14.04.25.11.32.23.07.12.06.25-.04.39-.24.28-.49.53-.75.75-1.45,1.11-3.3,2.37-5.57,3.77-2.26,1.4-4.56,2.39-6.9,2.97-2.34.58-4.33.19-5.99-1.16-.62-.64-1.03-1.67-1.23-3.08-.2-1.41-.21-2.78-.02-4.11-2.25,1.71-4.42,3.66-6.49,5.85-2.07,2.19-3.7,4.43-4.89,6.7-.31.36-.68.52-1.1.5-.43-.02-.78-.2-1.07-.52-.28-.32-.38-.72-.28-1.19.43-1.92.96-3.83,1.6-5.72.24-.76.46-1.52.68-2.28v-.04c.26-.83.49-1.67.68-2.52.17-.59.5-.94,1-1.05.5-.11.95-.01,1.35.28s.55.75.43,1.37c-.4,1.71-.88,3.41-1.42,5.12-.14.4-.27.8-.39,1.17,1.61-1.49,3.19-3.04,4.73-4.62,2.09-2.18,4.25-4.24,6.51-6.19.28-.24.55-.27.8-.11.25.17.46.44.62.82.26.64.33,1.32.2,2.03-.13.71-.33,1.42-.59,2.13-.28.81-.49,1.61-.62,2.4-.13.8,0,1.56.41,2.29,1.04.97,2.27,1.41,3.68,1.32,1.41-.09,2.83-.45,4.27-1.07,1.43-.62,2.68-1.23,3.75-1.85.17-.09.34-.2.53-.32,2.04-1.11,3.84-2.49,5.4-4.12"/>
    <path class="st1" d="M210.23,322.34c.29-.45.66-.69,1.12-.73.46-.04.85.09,1.17.39.32.3.42.71.3,1.23-1.66,7.21-3.62,14.35-5.87,21.44.38-.05.7-.03.98.04.27.07.42.28.45.64-.05.14-.13.26-.25.36-.12.09-.25.13-.39.1-.38-.07-.76-.09-1.14-.07-1.42,4.29-3.13,8.5-5.12,12.62-1.85,3.77-4.01,7.4-6.47,10.88-.28.38-.65.59-1.08.62-.44.04-.82-.1-1.15-.41-.55-.62-.88-1.74-1.01-3.36-.13-1.62.03-3.23.48-4.82.83-2.94,2.23-5.87,4.21-8.78,1.98-2.92,4.38-5.16,7.2-6.72,1.73-5.07,3.24-10.21,4.52-15.4-.88,1.4-1.87,2.7-2.99,3.91-1.54,1.64-3.04,2.34-4.5,2.1-1.46-.24-2.15-1.52-2.08-3.84.29-1.83.89-3.56,1.81-5.19.92-1.64,2.07-3.12,3.45-4.45,1.45-1.28,2.67-2.01,3.66-2.2,1-.19,1.72-.08,2.17.32.45.4.58.87.39,1.41-.19.53-.74.88-1.64,1.05-1.09.24-2.25,1.05-3.47,2.44-1.22,1.39-2.19,2.91-2.92,4.55-.72,1.65-.88,2.97-.48,3.96l-.18-.07c.9.38,1.77.16,2.61-.64.84-.81,1.61-1.84,2.31-3.09.7-1.26,1.27-2.38,1.72-3.38.17-.36.32-.66.46-.93.31-.71.62-1.43.92-2.17.26-.59.52-1.2.78-1.81M193.62,366.47c4.05-6.12,7.25-12.59,9.6-19.42-2.49,1.56-4.58,3.69-6.28,6.38-1.69,2.69-2.85,5.36-3.47,8.02-.02.02-.04.06-.04.11-.12.73-.2,1.56-.25,2.49-.05.92.1,1.73.43,2.42"/>
    <path class="st1" d="M241.49,325.18c.26.07.15.3-.32.68-.47.38-1.13.82-1.97,1.32-.84.5-1.65.97-2.44,1.42-.92.52-1.53.88-1.81,1.07-1.59.85-3.18,1.71-4.76,2.56-1.97,1.04-3.94,2.11-5.9,3.2-.07.66-.36,1.38-.85,2.13-.71,1-1.6,1.78-2.67,2.35-1.07.57-2.19.97-3.38,1.21-.14,0-.31.02-.5.07-.36.07-.72.09-1.08.05-.37-.04-.6-.23-.69-.59.55-.92,1.3-1.66,2.28-2.2.28-.17.54-.34.78-.53,1.14-.73,2.29-1.45,3.45-2.13.17-.5.17-1.03,0-1.6-.24-.43-.49-.87-.75-1.32-.78-1.19-1.33-2.49-1.64-3.91-.36-2.16-.19-3.84.5-5.05.69-1.21,1.52-2.02,2.51-2.44.98-.41,1.76-.52,2.35-.32.58.2.57.65-.02,1.33-1.23.64-2.02,1.58-2.35,2.83-.33,1.24-.31,2.5.07,3.75.24.73.53,1.46.89,2.17.54,1.02.91,2.04,1.1,3.06.85-.45,1.71-.91,2.56-1.39.36-.19.71-.38,1.07-.57,1.23-.66,2.48-1.32,3.73-1.96,2.7-1.35,5.31-2.81,7.82-4.37.14-.07.27-.15.39-.25.26-.19.52-.34.78-.46.26-.12.55-.15.85-.11M220.47,337.59c-1.07.59-2.09,1.26-3.06,1.99,1.16-.5,2.18-1.16,3.06-1.99"/>
    <path class="st1" d="M317.02,275.08c1.73.12,2.95.75,3.66,1.9.71,1.15,1.09,2.51,1.14,4.07.05,1.56-.04,3.01-.25,4.34-.88,5.29-2.09,10.48-3.63,15.57-.1.33-.19.68-.28,1.03-.9,3.15-1.81,6.31-2.74,9.46-1.83,6.12-3.57,12.24-5.23,18.38.45.05.89.1,1.31.14.36.1.58.28.66.55.08.27.04.53-.12.76-.17.24-.43.33-.78.28-.5-.09-.98-.18-1.46-.25-.85,3.18-1.65,6.38-2.38,9.6-1.35,5.93-2.41,11.93-3.16,18.01-.76,6.08-.59,12.13.5,18.15.24,1.04.53,2.05.89,3.02.17.5.15.96-.04,1.39-.19.43-.52.74-1,.93-.5.17-.97.14-1.42-.09-.45-.23-.76-.6-.93-1.12-.31-1.16-.56-2.33-.75-3.52-.55-3.98-.65-7.98-.32-12,.33-4.02.85-7.99,1.56-11.93,1.42-7.66,3.15-15.24,5.19-22.76-8.32-1.33-16.71-1.91-25.18-1.74-4.69,6.66-9.17,13-13.42,19.03-4.26,6.02-9.14,12.95-14.67,20.8-.5.59-1.05.84-1.65.73-.61-.11-1.06-.43-1.37-.96-.31-.53-.26-1.14.14-1.83.21-.33,2.88-4.12,8-11.38,5.12-7.25,11.3-16.02,18.53-26.28-1.64.07-3.27.17-4.91.29-5.31.38-10.53,1.34-15.65,2.88-.85.19-1.49.02-1.9-.5-.42-.52-.54-1.11-.39-1.76.15-.65.67-1.06,1.55-1.23,7.44-.76,14.9-1.15,22.37-1.18,2.87-4.1,5.75-8.2,8.64-12.3,7.56-10.71,14.06-19.93,19.51-27.65,5.44-7.72,8.29-11.76,8.55-12.14.38-.47.85-.71,1.42-.71M315.52,301.39c.05-.17.11-.39.18-.68.4-1.56.95-3.92,1.64-7.07.69-3.15,1.15-6.19,1.4-9.1.25-2.92-.07-4.8-.94-5.65-.71.97-4.43,6.23-11.17,15.79-6.73,9.55-14.53,20.64-23.4,33.25,8.23.12,16.43.67,24.61,1.67,1.02-3.77,2.05-7.53,3.09-11.27,1.59-5.62,3.12-11.26,4.59-16.93"/>
    <path class="st1" d="M345,314.73c.57.4.8.89.69,1.46-.11.57-.4,1-.89,1.3-.49.3-1.03.23-1.62-.19-.59-.88-1.42-1.45-2.47-1.72-1.05-.27-2.14-.43-3.25-.48-.43-.02-.84-.06-1.24-.11-3.86-.14-7.74-.05-11.63.29-1.3,3.82-2.69,7.62-4.16,11.41-.21.59-.44,1.2-.68,1.81-.28,3.22-.87,6.14-1.74,8.75-.16.5-.34,1-.53,1.49-.4,1.21-.88,2.39-1.44,3.54-.56,1.15-1.31,2.16-2.26,3.04-.4.21-.76.2-1.07-.04-.31-.24-.41-.57-.32-1,1.78-6.45,3.82-12.85,6.12-19.2.14-.4.28-.81.43-1.21-.24-1.54-.74-2.9-1.49-4.07-.76-1.17-1.9-1.98-3.41-2.44-.26-.12-.62-.18-1.07-.18-.33,0-.63-.03-.89-.09-.26-.06-.39-.22-.39-.48.02-.09.07-.18.14-.27.07-.08.15-.14.25-.16,2.7-.64,5.41-1.16,8.11-1.56.59-.07,1.24-.15,1.95-.25,0-.02.01-.06.04-.1.02-.05.04-.09.04-.14.19-.57.37-1.14.53-1.71.92-2.68,1.61-5.38,2.06-8.11.07-.62.35-1.03.84-1.23.48-.2.95-.2,1.39,0,.44.2.65.62.62,1.26-.71,3.25-1.59,6.47-2.63,9.67,2.32-.33,4.77-.6,7.34-.8,2.57-.2,4.98-.21,7.24-.02,2.25.19,4.05.7,5.41,1.53M319.36,322.59c.83-2.35,1.62-4.69,2.38-7.04-2.42.29-4.84.65-7.26,1.1,1.35.5,2.42,1.26,3.22,2.29.79,1.03,1.35,2.25,1.65,3.65M315.27,341.33c.92-1.4,1.67-3.02,2.22-4.85.56-1.84.97-3.58,1.23-5.24-1.26,3.34-2.41,6.71-3.45,10.1"/>
    <path class="st1" d="M353.68,324.97c.24.28.21.6-.09.96-.3.35-.65.7-1.05,1.03-.28.24-.49.43-.6.57-.9.81-2.39,1.87-4.48,3.2-2.09,1.33-4.37,2.56-6.86,3.7-2.49,1.14-4.76,1.83-6.83,2.06-2.06.24-3.51-.32-4.34-1.67-.78-1.99-.96-4.07-.52-6.24.44-2.17,1.3-4.09,2.58-5.78.76-.9,1.67-1.4,2.74-1.49,1.07-.09,1.73.55,1.99,1.92.16.69-.04,1.44-.61,2.26-.57.82-1.27,1.57-2.11,2.26-.84.69-1.57,1.16-2.19,1.42-.28,1.49-.37,2.76-.25,3.8.19,1.52,1.1,2.25,2.72,2.21,1.62-.05,3.52-.52,5.69-1.41,2.17-.89,4.19-1.87,6.06-2.93,1.87-1.07,3.16-1.87,3.88-2.42,1.35-.95,2.55-2.06,3.59-3.34.09-.12.21-.19.34-.2.13-.01.24.02.34.09M334.01,323.97c-1.07.73-1.84,1.94-2.31,3.63.59-.54,1.14-1.16,1.63-1.83.5-.68.72-1.27.68-1.8"/>
    <path class="st1" d="M379.53,330.8c.17-.26.37-.38.6-.36.24.02.42.13.55.32.13.19.11.4-.05.64-1.21,1.85-2.98,4.14-5.32,6.86-2.34,2.73-4.94,5.36-7.8,7.9-2.87,2.53-5.72,4.44-8.55,5.72-2.83,1.28-5.36,1.37-7.59.28-1.71-1.4-2.51-3.89-2.42-7.47.1-3.58.78-7.73,2.06-12.45,1.28-4.72,2.85-9.48,4.71-14.3,1.86-4.81,3.7-9.15,5.51-13.02,1.81-3.86,3.31-6.73,4.5-8.6,1.09-1.87,2.3-3.7,3.63-5.48.24-.28.51-.47.83-.55.32-.08.64-.05.94.09.57.38.78.91.62,1.58-.15.68-.42,1.37-.8,2.08-.21.45-.38.85-.5,1.21-.73,1.56-1.47,3.14-2.2,4.73-1.31,2.92-2.67,5.8-4.11,8.66-1.43,2.86-3.06,5.6-4.89,8.23-1.92,5.12-3.63,10.25-5.12,15.4-.07.19-.13.4-.18.64-.43,1.59-.9,3.62-1.42,6.1-.52,2.48-.8,4.84-.84,7.08-.03,2.24.46,3.79,1.48,4.64,1.68.62,3.59.46,5.72-.48,2.13-.94,4.3-2.29,6.49-4.05,2.19-1.77,4.21-3.6,6.04-5.51,1.84-1.91,3.3-3.51,4.39-4.82,1.35-1.61,2.58-3.31,3.7-5.08"/>
    <path class="st1" d="M401.15,325.08c.59-.07.8.05.62.37-.18.32-.6.75-1.26,1.3-.66.55-1.39,1.11-2.19,1.69-.79.58-1.51,1.08-2.15,1.49s-1.03.66-1.17.73c-1.78,1.11-3.6,2.15-5.48,3.11-1.87.96-3.84,1.71-5.9,2.26-1.68.5-2.84.21-3.48-.85-.64-1.07-.83-2.35-.57-3.84.26-2.35,1.08-4.48,2.45-6.4.4-.45.85-.61,1.33-.48.48.13.85.42,1.08.85.24.44.18.91-.18,1.41-.78,1.11-1.43,2.35-1.96,3.72-.52,1.36-.69,2.72-.5,4.07.5.47,1.18.63,2.06.46.88-.17,1.71-.42,2.49-.75.38-.14.71-.25.99-.32,2.54-1.04,4.98-2.29,7.34-3.73,2.36-1.45,4.51-3.14,6.46-5.08M384.26,321.56c-.88-.12-1.33-.51-1.37-1.17-.04-.66.2-1.24.71-1.74.51-.5,1.12-.53,1.83-.1.43.31.62.69.57,1.16-.05.46-.24.88-.57,1.26-.33.38-.72.58-1.17.6"/>
    <path class="st1" d="M424.27,324.97c.24.28.21.6-.09.96-.3.35-.65.7-1.05,1.03-.28.24-.49.43-.6.57-.9.81-2.39,1.87-4.48,3.2-2.09,1.33-4.37,2.56-6.86,3.7-2.49,1.14-4.76,1.83-6.83,2.06-2.06.24-3.51-.32-4.34-1.67-.78-1.99-.96-4.07-.52-6.24.44-2.17,1.3-4.09,2.58-5.78.76-.9,1.67-1.4,2.74-1.49,1.07-.09,1.73.55,1.99,1.92.16.69-.04,1.44-.61,2.26-.57.82-1.27,1.57-2.11,2.26-.84.69-1.57,1.16-2.19,1.42-.28,1.49-.37,2.76-.25,3.8.19,1.52,1.1,2.25,2.72,2.21,1.62-.05,3.52-.52,5.69-1.41,2.17-.89,4.19-1.87,6.06-2.93,1.87-1.07,3.16-1.87,3.88-2.42,1.35-.95,2.55-2.06,3.59-3.34.09-.12.21-.19.34-.2.13-.01.24.02.34.09M404.6,323.97c-1.07.73-1.84,1.94-2.31,3.63.59-.54,1.14-1.16,1.63-1.83.5-.68.72-1.27.68-1.8"/>
    <path class="st1" d="M435.4,326.64c.16.12.37.19.62.21.25.02.52.04.8.04.31-.02.57-.02.8.02.23.04.35.15.37.34-.1.29-.36.48-.8.59-.44.11-.91.15-1.41.12-.5-.02-.89-.09-1.17-.21-.76-.38-1.29-.91-1.6-1.58-.31-.68-.45-1.42-.43-2.22-2.39,2.06-4.46,4.43-6.21,7.11-1.74,2.68-3.23,5.46-4.46,8.35-.07.19-.2.33-.37.43-.18.09-.37.09-.59,0-.19-.09-.31-.24-.37-.44-.06-.2-.09-.41-.09-.62s-.02-.4-.07-.57c-.28-4.67.75-9.02,3.09-13.05.33-.47.73-.69,1.21-.64.47.05.86.26,1.17.64.31.38.34.83.11,1.35-.62,1.23-1.11,2.49-1.49,3.77,2.35-4.31,5.49-7.93,9.42-10.84.43-.29.85-.34,1.26-.18.41.17.71.45.89.85.18.4.11.82-.2,1.24-.5.76-.9,1.67-1.21,2.74-.31,1.07-.07,1.92.71,2.56"/>
  </g>
  <g>
    <path class="st1" d="M190.12,400.09c.41,1.82,1.62,2.89,3.86,2.89,2.5,0,3.46-1.25,3.46-2.73s-.68-2.5-3.69-3.24c-2.89-.72-4.14-1.66-4.14-3.63,0-1.8,1.31-3.47,4.24-3.47s4.28,1.83,4.45,3.49h-1.09c-.31-1.46-1.27-2.52-3.42-2.52-1.97,0-3.05.92-3.05,2.44s.9,2.09,3.42,2.71c3.85.96,4.41,2.5,4.41,4.14,0,2.01-1.46,3.75-4.63,3.75-3.42,0-4.67-1.99-4.92-3.83h1.09Z"/>
    <path class="st1" d="M199.88,394h1.82v-3.05h.98v3.05h2.32v.92h-2.32v6.34c0,1.09.23,1.72,1.17,1.72.29,0,.7-.02,1.02-.12v.86c-.33.14-.8.17-1.21.17-1.25,0-1.95-.62-1.95-2.19v-6.79h-1.82v-.92Z"/>
    <rect class="st1" x="207.07" y="401.25" width=".98" height="2.52"/>
    <path class="st1" d="M216.43,390.1h4.88c2.5,0,4.22,1.39,4.22,3.81s-1.7,3.9-4.35,3.9h-3.67v5.95h-1.07v-13.67ZM217.51,396.83h3.77c2.21,0,3.12-1.17,3.12-2.89,0-1.83-1.21-2.87-3.04-2.87h-3.85v5.76Z"/>
    <path class="st1" d="M227.89,399c.02,2.52,1.29,4.08,3.16,4.08s2.46-1.03,2.81-1.83h1c-.41,1.29-1.45,2.75-3.85,2.75-2.97,0-4.12-2.56-4.12-5.04,0-2.79,1.39-5.19,4.24-5.19,3.01,0,3.96,2.6,3.96,4.43,0,.27,0,.55-.02.8h-7.18ZM234.08,398.14c-.02-1.93-1.07-3.46-2.99-3.46-2.01,0-2.93,1.41-3.14,3.46h6.13Z"/>
    <path class="st1" d="M236.29,394h1.82v-3.05h.98v3.05h2.32v.92h-2.32v6.34c0,1.09.24,1.72,1.17,1.72.29,0,.7-.02,1.01-.12v.86c-.33.14-.8.17-1.21.17-1.25,0-1.95-.62-1.95-2.19v-6.79h-1.82v-.92Z"/>
    <path class="st1" d="M243.61,399c.02,2.52,1.29,4.08,3.16,4.08s2.46-1.03,2.81-1.83h.99c-.41,1.29-1.45,2.75-3.85,2.75-2.97,0-4.12-2.56-4.12-5.04,0-2.79,1.39-5.19,4.24-5.19,3.01,0,3.96,2.6,3.96,4.43,0,.27,0,.55-.02.8h-7.18ZM249.8,398.14c-.02-1.93-1.07-3.46-2.99-3.46-2.01,0-2.93,1.41-3.14,3.46h6.13Z"/>
    <path class="st1" d="M253.31,396.66c0-1.64-.02-2.34-.02-2.65h.96c.02.31.04.94.04,2.19.57-1.46,1.82-2.34,3.4-2.42v1.06c-2.03.14-3.4,1.54-3.4,3.86v5.07h-.98v-7.11Z"/>
    <path class="st1" d="M259.83,401.07c.33,1.27,1.23,2.03,2.77,2.03,1.74,0,2.44-.8,2.44-1.89s-.47-1.66-2.65-2.19c-2.52-.6-3.14-1.37-3.14-2.65s1.01-2.6,3.22-2.6,3.26,1.35,3.42,2.73h-.98c-.18-.82-.82-1.83-2.48-1.83s-2.19.84-2.19,1.62c0,.9.47,1.35,2.4,1.82,2.75.66,3.44,1.56,3.44,3.03,0,1.78-1.45,2.87-3.49,2.87-2.23,0-3.47-1.17-3.75-2.93h.99Z"/>
    <path class="st1" d="M268.46,389.38h.98v6.27c.47-.98,1.43-1.87,3.34-1.87,2.3,0,4,1.89,4,4.9s-1.52,5.33-4.26,5.33c-1.64,0-2.58-.66-3.08-1.78,0,.62-.02,1.27-.04,1.54h-.96c.02-1.11.02-2.22.02-3.34v-11.05ZM275.74,398.69c0-2.44-1.21-4-3.07-4-2.44,0-3.3,1.66-3.3,4.22,0,2.3.76,4.18,3.18,4.18,1.97,0,3.18-1.64,3.18-4.39"/>
    <path class="st1" d="M286.61,400.91c0,.96.02,2.48.02,2.85h-.94c-.04-.25-.06-.9-.06-1.7-.41,1.15-1.4,1.93-3.14,1.93-1.41,0-3.2-.55-3.2-3.53v-6.46h.96v6.23c0,1.42.45,2.81,2.38,2.81,2.19,0,3.01-1.23,3.01-4.02v-5.02h.98v6.91Z"/>
    <path class="st1" d="M289.93,396.66c0-1.64-.02-2.34-.02-2.65h.96c.02.31.04.94.04,2.19.57-1.46,1.82-2.34,3.4-2.42v1.06c-2.03.14-3.4,1.54-3.4,3.86v5.07h-.98v-7.11Z"/>
    <path class="st1" d="M303.58,403.1c0,3.12-1.39,4.76-4.22,4.76-2.54,0-3.59-1.42-3.83-2.91h.99c.35,1.35,1.46,1.99,2.87,1.99,2.54,0,3.24-1.64,3.24-4.12v-1.02c-.53,1.27-1.48,1.95-3.26,1.95-2.28,0-4.04-1.85-4.04-4.88,0-3.28,1.88-5.11,4.18-5.11,1.99,0,2.85.94,3.12,1.72.02-.57.04-1.25.06-1.48h.92c0,.35-.04,1.89-.04,2.83v6.27ZM296.37,398.85c0,2.32,1.23,4,3.1,4,2.44,0,3.18-1.62,3.18-4.16s-.78-4-3.12-4-3.16,1.93-3.16,4.16"/>
  </g>
</svg>